<svg width="20" height="36" viewBox="0 0 20 36" fill="none" xmlns="http://www.w3.org/2000/svg">
<path d="M10.0553 0C11.278 0 12.2658 1.00547 12.2658 2.25V4.76016C12.3763 4.77422 12.4799 4.78828 12.5905 4.80938C12.6181 4.81641 12.6388 4.81641 12.6665 4.82344L15.9822 5.44219C17.1842 5.66719 17.9786 6.84141 17.7575 8.05781C17.5365 9.27422 16.3829 10.0898 15.1878 9.86484L11.9066 9.25313C9.74444 8.92969 7.83789 9.14766 6.49777 9.68906C5.15765 10.2305 4.61884 10.9758 4.4945 11.6648C4.35634 12.4172 4.45996 12.8391 4.57739 13.0992C4.70173 13.3734 4.95732 13.6828 5.4616 14.0273C6.58757 14.7797 8.31453 15.2719 10.5527 15.8766L10.753 15.9328C12.7286 16.4672 15.1464 17.1141 16.9424 18.3094C17.9233 18.9633 18.849 19.8492 19.4223 21.0867C20.0095 22.3453 20.1338 23.7516 19.8644 25.2492C19.3878 27.9211 17.5779 29.707 15.3329 30.6422C14.3865 31.0359 13.3572 31.2891 12.2658 31.4156V33.75C12.2658 34.9945 11.278 36 10.0553 36C8.83261 36 7.84479 34.9945 7.84479 33.75V31.2961C7.81716 31.2891 7.78262 31.2891 7.75499 31.282H7.74118C6.05567 31.0148 3.28563 30.2766 1.42052 29.4328C0.308361 28.9266 -0.19591 27.5977 0.301453 26.4656C0.798817 25.3336 2.10439 24.8203 3.21655 25.3266C4.66029 25.9805 7.03658 26.6273 8.41123 26.8453C10.6148 27.1758 12.4316 26.9859 13.6612 26.4727C14.8286 25.9875 15.3605 25.2844 15.5125 24.4406C15.6437 23.6953 15.5401 23.2664 15.4227 23.0063C15.2914 22.725 15.0358 22.4156 14.5247 22.0711C13.3918 21.3188 11.6579 20.8266 9.41287 20.2219L9.21945 20.1727C7.25072 19.6383 4.83298 18.9844 3.03695 17.7891C2.05604 17.1352 1.1373 16.2422 0.563951 15.0047C-0.0163062 13.7461 -0.133739 12.3398 0.142574 10.8422C0.639937 8.15625 2.61557 6.4125 4.86062 5.50547C5.77936 5.13281 6.7879 4.87969 7.84479 4.73203V2.25C7.84479 1.00547 8.83261 0 10.0553 0Z" fill="#00A6BC"/>
</svg>
