<svg width="62" height="62" viewBox="0 0 62 62" fill="none" xmlns="http://www.w3.org/2000/svg">
<path d="M31 62C39.2217 62 47.1067 58.7339 52.9203 52.9203C58.7339 47.1067 62 39.2217 62 31C62 22.7783 58.7339 14.8933 52.9203 9.07969C47.1067 3.26606 39.2217 0 31 0C22.7783 0 14.8933 3.26606 9.07969 9.07969C3.26606 14.8933 0 22.7783 0 31C0 39.2217 3.26606 47.1067 9.07969 52.9203C14.8933 58.7339 22.7783 62 31 62ZM23.25 19.375H38.75C40.8934 19.375 42.625 21.1066 42.625 23.25V38.75C42.625 40.8934 40.8934 42.625 38.75 42.625H23.25C21.1066 42.625 19.375 40.8934 19.375 38.75V23.25C19.375 21.1066 21.1066 19.375 23.25 19.375Z" fill="#79EFFF"/>
</svg>
